<?xml version="1.0" encoding="utf-8"?>
<!-- Generator: Adobe Illustrator 28.1.0, SVG Export Plug-In . SVG Version: 6.00 Build 0)  -->
<svg version="1.1" id="レイヤー_1" xmlns="http://www.w3.org/2000/svg" xmlns:xlink="http://www.w3.org/1999/xlink" x="0px"
	 y="0px" viewBox="0 0 595.28 841.89" style="enable-background:new 0 0 595.28 841.89;" xml:space="preserve">
<style type="text/css">
	.st0{fill:#FFFFFF;}
	.st1{fill:none;}
</style>
<rect x="-0.84" y="-1.62" class="st0" width="599.65" height="843.46"/>
<g>
	<path d="M363.34,269.66c-4.36,0.84-7.53,6.29-8.77,2.03c-8.86-30.57-45.56-41.14-89.23-45.47c-38.92-3.85-56.55,14.33-55.79,39.14
		c0.16,5.07,1.08,10.42,2.75,15.92c10.13,33.35,22.23,52.53,64.15,74.25c60.61,31.32,105.07,58.37,105.07,106.36
		c0,53.04-64.15,89.63-129.31,89.63c-28.37,0-53.19-7.52-73.24-15.11c-2.6-0.98-4.51-3.14-5.18-5.84
		c-3.58-14.38-8.23-40.66-11.48-63.87c-0.61-4.33,2.12-8.43,6.35-9.52l0.38-0.1c4.41-1.14,8.86,1.25,10.31,5.49
		c11.09,32.48,33.75,70.25,82.45,70.25c36.37,0,73.19-14.68,73.19-47.51c0-38.89-35.31-65.13-79.76-89.38
		c-53.04-28.79-82.84-53.04-82.84-100.01c0-44.96,37.24-69.07,103.92-69.07c23.99,0,32.73,3.94,45.83,6.83
		C325.74,234.49,362.94,266,363.34,269.66C364.98,284.77,360.34,244.86,363.34,269.66c0.54,4.47-4.35,1.17-8.77,2.03L363.34,269.66z
		"/>
	<path d="M353.45,551.24l-0.05-14.13c41.41-4.68,45.44-6.71,45.29-49.61l-0.67-200.37c-0.15-43.4-4.19-45.41-45.63-49.81
		l-0.05-14.13l135.37-0.45l0.05,14.13c-41.91,4.68-45.95,6.72-45.8,50.12l0.67,200.37c0.15,43.4,4.19,44.9,46.13,49.3l0.05,14.13
		L353.45,551.24z"/>
	<path d="M246.87,222.69c71.22,0,116.18,14.14,147.49,43.94c24.75,24.25,42.94,59.6,42.94,108.1c0,59.1-24.25,107.08-63.14,136.38
		c-38.39,28.79-87.39,39.91-149.52,39.91h-118.2l0-14.14c43.44-4.04,45.46-7.57,45.46-49V286.33c0-43.44-6.06-45.46-45.46-49.5
		c0,0,0-14.14,0-14.14H246.87z M195.86,483.83c0,37.89,16.16,48.49,54.05,48.49c90.92,0,137.39-62.13,137.39-150.52
		c0-55.06-18.69-96.98-58.59-121.23c-23.24-14.65-52.53-20.2-86.38-20.2c-22.73,0-34.85,3.03-39.91,7.07
		c-4.54,3.03-6.57,8.59-6.57,28.29V483.83z"/>
	<g>
		<g>
		</g>
	</g>
	<g>
		<g>
		</g>
	</g>
	<rect x="185.58" y="589.91" class="st1" width="204.84" height="55.87"/>
	<g>
		<g>
			<path d="M239.86,610.15c-1.91-7.41-5.05-14.71-15.6-14.71c-8.76,0-11.79,6.4-11.79,12.24c0,7.75,4.94,11.68,14.26,16.5
				c13.47,6.96,19.31,12.12,19.31,22.79c0,11.79-10.22,20.77-24.7,20.77c-6.74,0-12.57-1.91-17.18-3.7
				c-0.9-3.14-2.25-10.78-3.03-16.84l3.48-0.9c2.25,7.52,7.18,17.29,18.86,17.29c8.08,0,13.02-5.61,13.02-12.91
				c0-8.64-4.6-12.12-14.48-17.51c-11.79-6.4-18.41-11.79-18.41-22.23c0-9.99,8.31-19.42,23.12-19.42c6.29,0,12.46,1.68,14.82,2.13
				c0.45,4.04,0.9,8.53,1.8,15.83L239.86,610.15z"/>
			<path d="M278.59,666.05v-3.14c9.21-1.01,10.1-1.46,10.1-11v-44.57c0-9.65-0.9-10.1-10.1-11.11v-3.14h30.08v3.14
				c-9.32,1.01-10.21,1.46-10.21,11.11v44.57c0,9.65,0.9,9.99,10.21,11v3.14H278.59z"/>
			<path d="M372.32,593.08c15.83,0,25.82,3.14,32.78,9.77c5.5,5.39,9.54,13.25,9.54,24.02c0,13.13-5.39,23.8-14.03,30.31
				c-8.53,6.4-19.42,8.87-33.23,8.87h-26.27v-3.14c9.65-0.9,10.1-1.68,10.1-10.89v-44.79c0-9.65-1.35-10.1-10.1-11v-3.14H372.32z
				 M360.98,651.12c0,8.42,3.59,10.78,12.01,10.78c20.21,0,30.53-13.81,30.53-33.45c0-12.24-4.15-21.55-13.02-26.94
				c-5.16-3.26-11.67-4.49-19.2-4.49c-5.05,0-7.75,0.67-8.87,1.57c-1.01,0.67-1.46,1.91-1.46,6.29V651.12z"/>
		</g>
	</g>
	<path d="M367.66,239.04c0,0-41.58-3.72-45.26-3.52c-0.13,0.1,0.04-12.75,0.04-12.75l42.02,0.44L367.66,239.04z"/>
	<polygon points="322.41,222.78 117.8,222.65 117.37,235.59 322.38,234.34 	"/>
	<polygon points="360.91,551.21 171.06,551.07 170.46,537.92 359.98,536.34 	"/>
	<path d="M209,261.93c0,0,2.14-14.65,6.43-19.65c0.36,0,12.86-1.43,18.22-1.79C233.65,240.49,215.07,240.85,209,261.93z"/>
</g>
</svg>
